<svg width="100" height="100" viewBox="0 0 100 100" fill="none" xmlns="http://www.w3.org/2000/svg">
<path d="M79.6667 45.5V41.3333C79.6667 25.6208 79.6667 17.7625 74.7833 12.8833C69.9 8.00417 62.0458 8 46.3333 8C30.6208 8 22.7625 8 17.8833 12.8833C13.0042 17.7667 13 25.6208 13 41.3333V58C13 73.7125 13 81.5708 17.8833 86.45C22.7667 91.3292 30.6208 91.3333 46.3333 91.3333" stroke="white" stroke-width="6" stroke-linecap="round" stroke-linejoin="round"/>
<path d="M87.9995 91.3334L80.8578 84.1917M83.237 72.2875C83.2694 74.1841 82.9238 76.068 82.2204 77.8296C81.5171 79.5912 80.47 81.195 79.1402 82.5477C77.8105 83.9003 76.2247 84.9746 74.4755 85.708C72.7262 86.4413 70.8484 86.819 68.9516 86.819C67.0548 86.819 65.177 86.4413 63.4277 85.708C61.6784 84.9746 60.0926 83.9003 58.7629 82.5477C57.4331 81.195 56.3861 79.5912 55.6827 77.8296C54.9793 76.068 54.6338 74.1841 54.6661 72.2875C54.7301 68.5411 56.2633 64.9697 58.9354 62.3428C61.6075 59.716 65.2045 58.244 68.9516 58.244C72.6986 58.244 76.2956 59.716 78.9677 62.3428C81.6398 64.9697 83.173 68.5411 83.237 72.2875Z" stroke="white" stroke-width="6" stroke-linecap="round"/>
<path d="M29.6641 28.8334H62.9974M29.6641 45.5H46.3307" stroke="white" stroke-width="6" stroke-linecap="round" stroke-linejoin="round"/>
</svg>
