<svg width="75" height="75" viewBox="0 0 75 75" fill="none" xmlns="http://www.w3.org/2000/svg">
<path d="M39.35 72.6814L39.3156 72.6876L39.0937 72.797L39.0312 72.8095L38.9875 72.797L38.7656 72.6876C38.7323 72.6772 38.7073 72.6824 38.6906 72.7032L38.6781 72.7345L38.625 74.072L38.6406 74.1345L38.6719 74.1751L38.9969 74.4064L39.0437 74.4189L39.0812 74.4064L39.4062 74.1751L39.4437 74.1251L39.4562 74.072L39.4031 72.7376C39.3948 72.7043 39.3771 72.6855 39.35 72.6814ZM40.1781 72.3282L40.1375 72.3345L39.5594 72.6251L39.5281 72.6564L39.5188 72.6907L39.575 74.0345L39.5906 74.072L39.6156 74.0939L40.2437 74.3845C40.2833 74.3949 40.3135 74.3866 40.3344 74.3595L40.3469 74.3157L40.2406 72.397C40.2302 72.3595 40.2094 72.3366 40.1781 72.3282ZM37.9437 72.3345C37.93 72.3261 37.9135 72.3234 37.8978 72.3269C37.8821 72.3304 37.8683 72.3398 37.8594 72.3532L37.8406 72.397L37.7344 74.3157C37.7365 74.3532 37.7542 74.3782 37.7875 74.3907L37.8344 74.3845L38.4625 74.0939L38.4938 74.0689L38.5062 74.0345L38.5594 72.6907L38.55 72.6532L38.5187 72.622L37.9437 72.3345Z" fill="#1867D4"/>
<path d="M59.375 9.375C61.0326 9.375 62.6223 10.0335 63.7944 11.2056C64.9665 12.3777 65.625 13.9674 65.625 15.625V59.375C65.625 61.0326 64.9665 62.6223 63.7944 63.7944C62.6223 64.9665 61.0326 65.625 59.375 65.625H15.625C13.9674 65.625 12.3777 64.9665 11.2056 63.7944C10.0335 62.6223 9.375 61.0326 9.375 59.375V15.625C9.375 13.9674 10.0335 12.3777 11.2056 11.2056C12.3777 10.0335 13.9674 9.375 15.625 9.375H59.375ZM59.375 15.625H15.625V59.375H59.375V15.625ZM37.6156 24.1531C38.4625 21.4406 42.1156 21.1844 43.3969 23.5781L43.5594 23.9219L48.9906 37.5H53.125C53.9215 37.5009 54.6876 37.8059 55.2668 38.3526C55.8459 38.8994 56.1945 39.6467 56.2412 40.4419C56.2878 41.237 56.0291 42.0199 55.5179 42.6307C55.0067 43.2415 54.2816 43.6341 53.4906 43.7281L53.125 43.75H46.8969C46.331 43.7503 45.7753 43.5985 45.2882 43.3104C44.8011 43.0224 44.4004 42.6086 44.1281 42.1125L43.9656 41.7687L40.9875 34.3188L35.8188 50.8594C35.0094 53.4469 31.5844 53.8375 30.1719 51.6563L29.9844 51.3281L26.1906 43.75H21.875C21.0785 43.7491 20.3124 43.4441 19.7332 42.8974C19.154 42.3506 18.8055 41.6033 18.7588 40.8081C18.7122 40.013 18.9709 39.2301 19.4821 38.6193C19.9933 38.0085 20.7185 37.6159 21.5094 37.5219L21.875 37.5H28.1063C29.1688 37.5 30.15 38.0313 30.7312 38.9031L30.9281 39.2469L32.1406 41.6719L37.6156 24.1531Z" fill="#1867D4"/>
</svg>
