<svg width="100" height="100" viewBox="0 0 100 100" fill="none" xmlns="http://www.w3.org/2000/svg">
<path d="M79.1667 43.7499V41.6666C79.1667 25.9541 79.1667 18.0958 74.2833 13.2166C69.4 8.33742 61.5458 8.33325 45.8333 8.33325C30.1208 8.33325 22.2625 8.33325 17.3833 13.2166C12.5042 18.0999 12.5 25.9541 12.5 41.6666V66.6666C12.5 74.4333 12.5 78.3166 13.7667 81.3749C14.6042 83.3973 15.832 85.2348 17.3798 86.7826C18.9276 88.3304 20.7652 89.5582 22.7875 90.3958C25.85 91.6666 29.7333 91.6666 37.5 91.6666" stroke="white" stroke-width="6" stroke-linecap="round" stroke-linejoin="round"/>
<path d="M29.1641 29.1665H62.4974M29.1641 45.8332H45.8307" stroke="white" stroke-width="6" stroke-linecap="round"/>
<path d="M63.6792 79.1833C63.4292 75.4833 62.9917 71.525 61.175 67.05C59.6208 63.2333 60.0542 54.2542 68.75 54.2542C77.4458 54.2542 77.775 63.2333 76.225 67.0458C74.4083 71.525 74.0667 75.4833 73.825 79.1833M87.5 91.6666H50V86.475C50 84.6166 51.1083 82.9791 52.7208 82.4708L62.1167 79.4875C62.7889 79.2736 63.475 79.1666 64.175 79.1666H73.325C74.025 79.1666 74.7111 79.2736 75.3833 79.4875L84.7792 82.4708C86.3917 82.9791 87.5 84.6166 87.5 86.475V91.6666Z" stroke="white" stroke-width="6" stroke-linecap="round" stroke-linejoin="round"/>
</svg>
