<svg width="100" height="100" viewBox="0 0 100 100" fill="none" xmlns="http://www.w3.org/2000/svg">
<path d="M75 67C71.8333 67 69 68.25 66.8333 70.2084L37.125 52.9167C37.3333 51.9584 37.5 51 37.5 50C37.5 49 37.3333 48.0417 37.125 47.0834L66.5 29.9584C68.75 32.0417 71.7083 33.3334 75 33.3334C81.9167 33.3334 87.5 27.75 87.5 20.8334C87.5 13.9167 81.9167 8.33337 75 8.33337C68.0833 8.33337 62.5 13.9167 62.5 20.8334C62.5 21.8334 62.6667 22.7917 62.875 23.75L33.5 40.875C31.25 38.7917 28.2917 37.5 25 37.5C18.0833 37.5 12.5 43.0834 12.5 50C12.5 56.9167 18.0833 62.5 25 62.5C28.2917 62.5 31.25 61.2084 33.5 59.125L63.1667 76.4584C62.9583 77.3334 62.8333 78.25 62.8333 79.1667C62.8333 85.875 68.2917 91.3334 75 91.3334C81.7083 91.3334 87.1667 85.875 87.1667 79.1667C87.1667 72.4584 81.7083 67 75 67ZM75 16.6667C77.2917 16.6667 79.1667 18.5417 79.1667 20.8334C79.1667 23.125 77.2917 25 75 25C72.7083 25 70.8333 23.125 70.8333 20.8334C70.8333 18.5417 72.7083 16.6667 75 16.6667ZM25 54.1667C22.7083 54.1667 20.8333 52.2917 20.8333 50C20.8333 47.7084 22.7083 45.8334 25 45.8334C27.2917 45.8334 29.1667 47.7084 29.1667 50C29.1667 52.2917 27.2917 54.1667 25 54.1667ZM75 83.4167C72.7083 83.4167 70.8333 81.5417 70.8333 79.25C70.8333 76.9584 72.7083 75.0834 75 75.0834C77.2917 75.0834 79.1667 76.9584 79.1667 79.25C79.1667 81.5417 77.2917 83.4167 75 83.4167Z" fill="white"/>
</svg>
