<svg width="80" height="89" viewBox="0 0 80 89" fill="none" xmlns="http://www.w3.org/2000/svg">
<path d="M52.4745 0.474563L52.4286 0.4829L52.1328 0.628732L52.0495 0.645398L51.9911 0.628732L51.6953 0.4829C51.6509 0.469011 51.6175 0.475952 51.5953 0.503729L51.5786 0.545397L51.5078 2.32873L51.5286 2.41206L51.5703 2.46623L52.0036 2.77456L52.0661 2.79123L52.1161 2.77456L52.5495 2.46623L52.5995 2.39956L52.6161 2.32873L52.5453 0.549562C52.5342 0.505117 52.5106 0.480118 52.4745 0.474563ZM53.5786 0.00373396L53.5245 0.0120627L52.7536 0.399564L52.712 0.441232L52.6995 0.487064L52.7745 2.27873L52.7953 2.32873L52.8286 2.35789L53.6661 2.7454C53.7189 2.75929 53.7592 2.74818 53.787 2.71207L53.8036 2.65373L53.662 0.095398C53.6481 0.045398 53.6203 0.0148451 53.5786 0.00373396ZM50.5995 0.0120627C50.5811 0.000934998 50.5592 -0.00267197 50.5382 0.00198556C50.5173 0.00664309 50.4989 0.0192079 50.487 0.0370649L50.462 0.095398L50.3203 2.65373C50.3231 2.70373 50.3467 2.73707 50.3911 2.75373L50.4536 2.7454L51.2911 2.35789L51.3328 2.32456L51.3495 2.27873L51.4203 0.487064L51.4078 0.437068L51.3661 0.3954L50.5995 0.0120627Z" fill="white"/>
<path opacity="0.8" d="M71.1111 8.79126C73.4686 8.79126 75.7295 9.72776 77.3965 11.3948C79.0635 13.0617 80 15.3227 80 17.6801V79.9024C80 82.2599 79.0635 84.5208 77.3965 86.1878C75.7295 87.8548 73.4686 88.7913 71.1111 88.7913H8.88889C6.53141 88.7913 4.27048 87.8548 2.60349 86.1878C0.936505 84.5208 0 82.2599 0 79.9024V17.6801C0 15.3227 0.936505 13.0617 2.60349 11.3948C4.27048 9.72776 6.53141 8.79126 8.88889 8.79126H71.1111ZM71.1111 17.6801H8.88889V79.9024H71.1111V17.6801ZM40.1644 29.809C41.3689 25.9513 46.5644 25.5868 48.3867 28.9913L48.6178 29.4802L56.3422 48.7913H62.2222C63.355 48.7925 64.4446 49.2263 65.2683 50.0039C66.092 50.7816 66.5877 51.8444 66.6541 52.9752C66.7205 54.1061 66.3526 55.2196 65.6255 56.0883C64.8984 56.957 63.8671 57.5152 62.7422 57.649L62.2222 57.6801H53.3644C52.5596 57.6806 51.7694 57.4647 51.0766 57.055C50.3838 56.6453 49.814 56.0568 49.4267 55.3513L49.1956 54.8624L44.96 44.2668L37.6089 67.7913C36.4578 71.4713 31.5867 72.0268 29.5778 68.9246L29.3111 68.4579L23.9156 57.6801H17.7778C16.645 57.6789 15.5554 57.2451 14.7317 56.4675C13.908 55.6899 13.4123 54.627 13.3459 53.4962C13.2795 52.3653 13.6474 51.2518 14.3745 50.3831C15.1016 49.5144 16.1329 48.9562 17.2578 48.8224L17.7778 48.7913H26.64C28.1511 48.7913 29.5467 49.5468 30.3733 50.7868L30.6533 51.2757L32.3778 54.7246L40.1644 29.809Z" fill="white"/>
</svg>
