<svg width="75" height="75" viewBox="0 0 75 75" fill="none" xmlns="http://www.w3.org/2000/svg">
<path d="M46.875 65.625L28.125 59.0625L13.5937 64.6875C12.5521 65.1042 11.5885 64.9875 10.7031 64.3375C9.81771 63.6875 9.375 62.8146 9.375 61.7188V17.9688C9.375 17.2917 9.57083 16.6927 9.9625 16.1719C10.3542 15.651 10.8875 15.2604 11.5625 15L28.125 9.375L46.875 15.9375L61.4062 10.3125C62.4479 9.89583 63.4115 10.0135 64.2969 10.6656C65.1823 11.3177 65.625 12.1896 65.625 13.2812V57.0312C65.625 57.7083 65.4302 58.3073 65.0406 58.8281C64.651 59.349 64.1167 59.7396 63.4375 60L46.875 65.625ZM43.75 57.9687V21.4062L31.25 17.0312V53.5938L43.75 57.9687ZM50 57.9687L59.375 54.8437V17.8125L50 21.4062V57.9687ZM15.625 57.1875L25 53.5938V17.0312L15.625 20.1562V57.1875Z" fill="#1867D4"/>
</svg>
