<svg width="83" height="90" viewBox="0 0 83 90" fill="none" xmlns="http://www.w3.org/2000/svg">
<path d="M41.0385 0V7.46154C18.486 7.46154 0 25.9475 0 48.5C0 71.0525 18.486 89.5385 41.0385 89.5385C63.591 89.5385 82.0769 71.0525 82.0769 48.5C82.0769 37.5054 77.9358 27.5704 70.5339 20.1685L65.2885 25.4177C71.3211 31.4429 74.6154 39.3447 74.6154 48.5C74.6154 66.986 59.5244 82.0769 41.0385 82.0769C22.5525 82.0769 7.46154 66.986 7.46154 48.5C7.46154 30.014 22.5525 14.9231 41.0385 14.9231V22.3846L59.6923 11.1923L41.0385 0ZM48.8507 24.485L39.5238 43.1389C38.3472 43.4567 37.3088 44.155 36.5705 45.1247C35.8322 46.0945 35.4355 47.2812 35.4423 48.5C35.4423 49.9842 36.0319 51.4076 37.0814 52.4571C38.1309 53.5066 39.5543 54.0962 41.0385 54.0962H41.2735L53.2791 66.1055L58.644 60.7407L46.6346 48.735V48.5C46.6346 47.765 46.4257 47.045 46.1683 46.3996L55.6108 27.7457L48.8507 24.4813V24.485Z" fill="white"/>
</svg>
