<svg width="68" height="75" viewBox="0 0 68 75" fill="none" xmlns="http://www.w3.org/2000/svg">
<path d="M63.75 67.464H18.75C21.2039 64.2289 22.522 60.2745 22.5 56.214V44.964H45C45.9946 44.964 46.9484 44.569 47.6516 43.8657C48.3549 43.1624 48.75 42.2086 48.75 41.214C48.75 40.2195 48.3549 39.2657 47.6516 38.5624C46.9484 37.8591 45.9946 37.464 45 37.464H22.5V25.8015C22.4968 21.7603 23.8286 17.8311 26.2885 14.6248C28.7485 11.4184 32.1987 9.11451 36.1029 8.07109C40.0072 7.02768 44.1468 7.30322 47.8783 8.85489C51.6098 10.4066 54.7242 13.1475 56.7375 16.6515C56.9856 17.0781 57.3155 17.4515 57.7082 17.7504C58.1009 18.0492 58.5487 18.2676 59.026 18.393C59.5033 18.5184 60.0006 18.5484 60.4895 18.4812C60.9784 18.414 61.4492 18.251 61.875 18.0015C62.7327 17.5068 63.36 16.693 63.62 15.7375C63.8799 14.7821 63.7514 13.7626 63.2625 12.9015C60.4115 7.98178 56.0194 4.13812 50.765 1.96473C45.5106 -0.208656 39.6867 -0.590738 34.1934 0.877553C28.7001 2.34584 23.8434 5.58274 20.3741 10.0879C16.9048 14.593 15.0161 20.1154 15 25.8015V37.464H3.75C2.75544 37.464 1.80161 37.8591 1.09835 38.5624C0.395088 39.2657 0 40.2195 0 41.214C0 42.2086 0.395088 43.1624 1.09835 43.8657C1.80161 44.569 2.75544 44.964 3.75 44.964H15V56.214C15 59.1977 13.8147 62.0592 11.705 64.169C9.59517 66.2788 6.73369 67.464 3.75 67.464C2.75544 67.464 1.80161 67.8591 1.09835 68.5624C0.395088 69.2657 0 70.2195 0 71.214C0 72.2086 0.395088 73.1624 1.09835 73.8657C1.80161 74.569 2.75544 74.964 3.75 74.964H63.75C64.7446 74.964 65.6984 74.569 66.4017 73.8657C67.1049 73.1624 67.5 72.2086 67.5 71.214C67.5 70.2195 67.1049 69.2657 66.4017 68.5624C65.6984 67.8591 64.7446 67.464 63.75 67.464Z" fill="white"/>
</svg>
