<svg width="100" height="100" viewBox="0 0 100 100" fill="none" xmlns="http://www.w3.org/2000/svg">
<path d="M50 63.125L42.1875 55.3125C41.3542 54.4792 40.3819 54.0625 39.2708 54.0625C38.1597 54.0625 37.1875 54.4792 36.3542 55.3125C35.5208 56.1458 35.1042 57.1361 35.1042 58.2833C35.1042 59.4306 35.5208 60.4194 36.3542 61.25L47.0833 72.0833C47.9167 72.9167 48.8889 73.3333 50 73.3333C51.1111 73.3333 52.0833 72.9167 52.9167 72.0833L63.75 61.25C64.5833 60.4167 65 59.4278 65 58.2833C65 57.1389 64.5833 56.1486 63.75 55.3125C62.9167 54.4764 61.9278 54.0597 60.7833 54.0625C59.6389 54.0653 58.6486 54.4819 57.8125 55.3125L50 63.125ZM50 36.875L57.8125 44.6875C58.6458 45.5208 59.6181 45.9375 60.7292 45.9375C61.8403 45.9375 62.8125 45.5208 63.6458 44.6875C64.4792 43.8542 64.8958 42.8653 64.8958 41.7208C64.8958 40.5764 64.4792 39.5861 63.6458 38.75L52.9167 27.9167C52.0833 27.0833 51.1111 26.6667 50 26.6667C48.8889 26.6667 47.9167 27.0833 47.0833 27.9167L36.25 38.75C35.4167 39.5833 35.0181 40.5556 35.0542 41.6667C35.0903 42.7778 35.5236 43.75 36.3542 44.5833C37.1847 45.4167 38.175 45.8333 39.325 45.8333C40.475 45.8333 41.4639 45.4167 42.2917 44.5833L50 36.875ZM20.8333 87.5C18.5417 87.5 16.5806 86.6847 14.95 85.0542C13.3194 83.4236 12.5028 81.4611 12.5 79.1667V20.8333C12.5 18.5417 13.3167 16.5806 14.95 14.95C16.5833 13.3194 18.5444 12.5028 20.8333 12.5H79.1667C81.4583 12.5 83.4208 13.3167 85.0542 14.95C86.6875 16.5833 87.5028 18.5444 87.5 20.8333V79.1667C87.5 81.4583 86.6847 83.4208 85.0542 85.0542C83.4236 86.6875 81.4611 87.5028 79.1667 87.5H20.8333ZM20.8333 79.1667H79.1667V20.8333H20.8333V79.1667Z" fill="white"/>
</svg>
