<svg width="66" height="56" viewBox="0 0 66 56" fill="none" xmlns="http://www.w3.org/2000/svg">
<path d="M13.9091 37.375H27.5455M13.9091 28H27.5455M13.9091 18.625H27.5455M43.38 21.05L42.3518 25.7625C42.3277 25.8719 42.2783 25.9718 42.2086 26.0516C42.139 26.1313 42.0518 26.188 41.9564 26.2156L37.8436 27.3937C37.2927 27.55 37.2927 28.4469 37.8436 28.6063L41.9564 29.7844C42.0518 29.812 42.139 29.8687 42.2086 29.9484C42.2783 30.0282 42.3277 30.1281 42.3518 30.2375L43.38 34.95C43.5164 35.5813 44.3018 35.5813 44.4382 34.95L45.4664 30.2375C45.4904 30.1281 45.5399 30.0282 45.6096 29.9484C45.6792 29.8687 45.7663 29.812 45.8618 29.7844L49.9745 28.6063C50.5255 28.45 50.5255 27.55 49.9745 27.3937L45.8618 26.2156C45.766 26.1878 45.6786 26.1306 45.609 26.0502C45.5393 25.9699 45.49 25.8693 45.4664 25.7594L44.4382 21.05C44.3018 20.4187 43.5191 20.4187 43.38 21.05ZM9.54545 3H56.4545C58.1905 3 59.8554 3.79018 61.0829 5.1967C62.3104 6.60322 63 8.51088 63 10.5V45.5C63 47.4891 62.3104 49.3968 61.0829 50.8033C59.8554 52.2098 58.1905 53 56.4545 53H9.54545C7.80949 53 6.14463 52.2098 4.91712 50.8033C3.68961 49.3968 3 47.4891 3 45.5V10.5C3 8.51088 3.68961 6.60322 4.91712 5.1967C6.14463 3.79018 7.80949 3 9.54545 3Z" stroke="#1867D4" stroke-width="6" stroke-miterlimit="10" stroke-linecap="round" stroke-linejoin="round"/>
</svg>
