<svg width="80" height="85" viewBox="0 0 80 85" fill="none" xmlns="http://www.w3.org/2000/svg">
<path fill-rule="evenodd" clip-rule="evenodd" d="M36.375 0L72.75 21.0011V52.7633L79.163 57.0387L76.9212 60.4014L63.449 80.6098L60.7142 84.7119L57.2283 81.2259L43.5926 67.59L49.3084 61.8743L59.457 72.0225L70.1954 55.9177L72.4374 52.5549L72.75 52.7633V46.0346L64.6666 46.0345V29.8682L40.4166 43.8688V81.671L36.375 84.0045L0 63.0034V21.0011L36.375 0ZM8.08321 29.868V58.3364L32.3332 72.337V43.8688L8.08321 29.868ZM36.375 9.33379L12.5291 23.1013L36.375 36.8687L60.2209 23.1012L36.375 9.33379Z" fill="white"/>
</svg>
