<svg width="76" height="79" viewBox="0 0 76 79" fill="none" xmlns="http://www.w3.org/2000/svg">
<path d="M5.73 36.6523L69.8014 7.51368M69.8014 7.51368L57.8229 3.00082M69.8014 7.51368L65.3443 19.4923M72.6429 75.4294H58.7143V36.4294C58.7143 35.6906 59.0078 34.982 59.5302 34.4596C60.0526 33.9372 60.7612 33.6437 61.5 33.6437H69.8571C70.596 33.6437 71.3045 33.9372 71.8269 34.4596C72.3494 34.982 72.6429 35.6906 72.6429 36.4294V75.4294ZM44.7857 75.4294H30.8571V44.7865C30.8571 44.0477 31.1506 43.3392 31.6731 42.8167C32.1955 42.2943 32.904 42.0008 33.6429 42.0008H42C42.7388 42.0008 43.4474 42.2943 43.9698 42.8167C44.4922 43.3392 44.7857 44.0477 44.7857 44.7865V75.4294ZM16.9286 75.4294H3V53.1437C3 52.4049 3.29349 51.6963 3.81592 51.1739C4.33834 50.6515 5.0469 50.358 5.78571 50.358H14.1429C14.8817 50.358 15.5902 50.6515 16.1127 51.1739C16.6351 51.6963 16.9286 52.4049 16.9286 53.1437V75.4294Z" stroke="white" stroke-width="6" stroke-linecap="round" stroke-linejoin="round"/>
</svg>
