<svg width="43" height="41" viewBox="0 0 43 41" fill="none" xmlns="http://www.w3.org/2000/svg">
<path d="M41 2.6875C42.1046 2.6875 43 3.58293 43 4.6875V38.3125C43 39.4171 42.1046 40.3125 41 40.3125H2C0.895431 40.3125 0 39.4171 0 38.3125V4.6875C0 3.58293 0.895431 2.6875 2 2.6875H6.71875C7.46088 2.6875 8.0625 2.08588 8.0625 1.34375C8.0625 0.601617 8.66412 0 9.40625 0C10.1484 0 10.75 0.601617 10.75 1.34375C10.75 2.08588 11.3516 2.6875 12.0938 2.6875H30.9062C31.6484 2.6875 32.25 2.08588 32.25 1.34375C32.25 0.601617 32.8516 0 33.5938 0C34.3359 0 34.9375 0.601617 34.9375 1.34375C34.9375 2.08588 35.5391 2.6875 36.2813 2.6875H41ZM4.6875 5.375C3.58293 5.375 2.6875 6.27043 2.6875 7.375V8.75C2.6875 9.85457 3.58293 10.75 4.6875 10.75H38.3125C39.4171 10.75 40.3125 9.85457 40.3125 8.75V7.375C40.3125 6.27043 39.4171 5.375 38.3125 5.375H36.2812C35.5391 5.375 34.9375 5.97662 34.9375 6.71875C34.9375 7.46088 34.3359 8.0625 33.5938 8.0625C32.8516 8.0625 32.25 7.46088 32.25 6.71875C32.25 5.97662 31.6484 5.375 30.9062 5.375H12.0938C11.3516 5.375 10.75 5.97662 10.75 6.71875C10.75 7.46088 10.1484 8.0625 9.40625 8.0625C8.66412 8.0625 8.0625 7.46088 8.0625 6.71875C8.0625 5.97662 7.46088 5.375 6.71875 5.375H4.6875ZM38.3125 37.625C39.4171 37.625 40.3125 36.7296 40.3125 35.625V15.4375C40.3125 14.3329 39.4171 13.4375 38.3125 13.4375H4.6875C3.58293 13.4375 2.6875 14.3329 2.6875 15.4375V35.625C2.6875 36.7296 3.58293 37.625 4.6875 37.625H38.3125ZM20.6317 24.117C21.4127 24.8981 21.4127 26.1644 20.6317 26.9455L13.9834 33.5938C13.4616 34.1156 12.6156 34.1156 12.0938 33.5938C11.5719 33.0719 11.5719 32.2259 12.0937 31.7041L16.8524 26.9455C17.6334 26.1644 17.6334 24.8981 16.8524 24.117L12.0937 19.3584C11.5719 18.8366 11.5719 17.9906 12.0938 17.4688C12.6156 16.9469 13.4616 16.9469 13.9834 17.4687L20.6317 24.117ZM22.8438 17.4688C23.3656 16.9469 24.2116 16.9469 24.7334 17.4687L31.3817 24.117C32.1627 24.8981 32.1627 26.1644 31.3817 26.9455L24.7334 33.5938C24.2116 34.1156 23.3656 34.1156 22.8438 33.5938C22.3219 33.0719 22.3219 32.2259 22.8437 31.7041L27.6024 26.9455C28.3834 26.1644 28.3834 24.8981 27.6024 24.117L22.8437 19.3584C22.3219 18.8366 22.3219 17.9906 22.8438 17.4688Z" fill="#4F2C8C"/>
</svg>
