<svg width="65" height="65" viewBox="0 0 65 65" fill="none" xmlns="http://www.w3.org/2000/svg">
<path d="M46.043 44.9792C49.6815 44.9772 52.3253 46.7686 54.1709 48.7576C55.0717 49.7283 55.7419 50.7085 56.1904 51.4568C55.7419 52.2048 55.0722 53.1859 54.1709 54.157C52.3253 56.1454 49.6814 57.9371 46.042 57.9373C42.4023 57.9373 39.7578 56.1455 37.9121 54.157C37.0111 53.1862 36.3401 52.2067 35.8916 51.4587C36.3401 50.7113 37.0113 49.7327 37.9121 48.7625C39.7578 46.7744 42.4023 44.9815 46.043 44.9792Z" stroke="#1867D4" stroke-width="6"/>
<path d="M21.6693 16.2501V10.8334H10.8359V59.5834H24.3776M21.6693 16.2501H43.3359M21.6693 16.2501V5.41675H43.3359V16.2501M43.3359 16.2501V10.8334H54.1693V32.5001M45.3672 51.4584H46.7214M46.0443 60.9376C36.557 60.9376 32.5026 51.4584 32.5026 51.4584C32.5026 51.4584 36.557 41.9847 46.0443 41.9792C55.5316 41.9738 59.5859 51.4584 59.5859 51.4584C59.5859 51.4584 55.5316 60.9376 46.0443 60.9376Z" stroke="#1867D4" stroke-width="6" stroke-linecap="square"/>
</svg>
