<svg width="100" height="100" viewBox="0 0 100 100" fill="none" xmlns="http://www.w3.org/2000/svg">
<g clip-path="url(#clip0_5674_25)">
<path fill-rule="evenodd" clip-rule="evenodd" d="M9.87108 46.7714C9.23749 47.7279 8.90647 48.8528 8.92108 50C8.90503 51.1496 9.23611 52.2773 9.87108 53.2357C13.4425 58.0286 19.2068 64.9714 26.3425 70.6786C33.5425 76.4429 41.6568 80.5714 49.9996 80.5714C58.3425 80.5714 66.4568 76.4429 73.6568 70.6786C80.7925 64.9643 86.5568 58.0286 90.1354 53.2357C90.7653 52.2757 91.0914 51.1481 91.0711 50C91.0878 48.8536 90.7593 47.7287 90.1282 46.7714C86.5568 41.9714 80.7854 35.0357 73.6496 29.3214C66.4568 23.5714 58.3425 19.4286 49.9996 19.4286C41.6568 19.4286 33.5425 23.5714 26.3425 29.3214C19.2068 35.0357 13.4425 41.9714 9.87108 46.7714ZM20.7639 22.3571C28.6925 16 38.7568 10.5 49.9996 10.5C61.2496 10.5 71.3139 16.0071 79.2425 22.3571C87.2211 28.7429 93.5211 36.3643 97.3139 41.4643L97.3568 41.5143C99.1211 43.9571 100.007 46.9857 100.007 50C100.007 53.0214 99.1211 56.0429 97.3568 58.4857L97.3211 58.5357C93.5211 63.6357 87.2211 71.2643 79.2425 77.65C71.3139 83.9929 61.2425 89.5 49.9996 89.5C38.7568 89.5 28.6925 84 20.7639 77.6429C12.7782 71.2643 6.47822 63.6429 2.68536 58.5357L2.64965 58.4857C0.90144 56.0031 -0.0275416 53.0363 -0.00749475 50C-0.00749475 46.9857 0.885362 43.9571 2.64965 41.5143L2.68536 41.4643C6.48536 36.3643 12.7782 28.7429 20.7568 22.3571M49.9996 32.1429C45.2636 32.1429 40.7216 34.0242 37.3727 37.3731C34.0239 40.722 32.1425 45.264 32.1425 50C32.1425 54.736 34.0239 59.278 37.3727 62.6269C40.7216 65.9758 45.2636 67.8571 49.9996 67.8571C54.7357 67.8571 59.2777 65.9758 62.6266 62.6269C65.9754 59.278 67.8568 54.736 67.8568 50C67.8568 45.264 65.9754 40.722 62.6266 37.3731C59.2777 34.0242 54.7357 32.1429 49.9996 32.1429Z" fill="white"/>
</g>
<defs>
<clipPath id="clip0_5674_25">
<rect width="100" height="100" fill="white"/>
</clipPath>
</defs>
</svg>
