<svg width="75" height="75" viewBox="0 0 75 75" fill="none" xmlns="http://www.w3.org/2000/svg">
<path fill-rule="evenodd" clip-rule="evenodd" d="M62.5 18.3821H12.4999V21.3232H62.5V18.3821ZM12.4999 56.6173V27.2056H62.5V56.6173H12.4999ZM6.25 12.4998V62.4997H68.7499V12.4998H6.25ZM53.125 34.3747V53.1247H59.3749V34.3747H53.125ZM43.75 53.1247V40.6248H49.9999V53.1247H43.75ZM34.375 49.9998V53.1247H40.6249V49.9998H34.375Z" fill="#1867D4"/>
<path fill-rule="evenodd" clip-rule="evenodd" d="M25 53.1247C31.0406 53.1247 35.9375 48.2279 35.9375 42.1873C35.9375 36.1466 31.0406 31.2498 25 31.2498C18.9593 31.2498 14.0625 36.1466 14.0625 42.1873C14.0625 48.228 18.9593 53.1247 25 53.1247ZM30.1967 45.6596C30.8834 44.6318 31.2499 43.4234 31.25 42.1873H25V35.9373C23.7639 35.9371 22.5554 36.3036 21.5276 36.9904C20.4998 37.6772 19.6987 38.6534 19.2258 39.7955C18.872 40.6493 18.7121 41.5709 18.7574 42.494C18.8027 43.4171 19.0521 44.3186 19.4878 45.1336C19.9234 45.9487 20.5344 46.657 21.2768 47.2075C22.0191 47.758 22.8743 48.137 23.7807 48.3172C24.9931 48.5583 26.2498 48.4345 27.3918 47.9615C28.5338 47.4884 29.5099 46.6873 30.1967 45.6596Z" fill="#1867D4"/>
</svg>
